<mxfile host="app.diagrams.net" modified="2023-07-03T08:03:20.459Z" agent="Mozilla/5.0 (Windows NT 10.0; Win64; x64) AppleWebKit/537.36 (KHTML, like Gecko) Chrome/114.0.0.0 Safari/537.36 Edg/114.0.1823.67" version="21.5.2" etag="iW6KvKO9Tbb0GZCfsc3z" type="github">
  <diagram name="Page-1" id="6PG3Fwifakfzk-G456FE">
    <mxGraphModel>
      <root>
        <mxCell id="0" />
        <mxCell id="1" parent="0" />
      </root>
    </mxGraphModel>
  </diagram>
</mxfile>
